<svg xmlns="http://www.w3.org/2000/svg" xmlns:xlink="http://www.w3.org/1999/xlink" width="1200" height="1200" viewBox="0 0 512 512" fill="none" class="h-full w-full" id="iconWithBackground"><rect id="r4" width="512" height="512" x="0" y="0" rx="141" fill="url(#linearGradient-iconWithBackground)" stroke="#544a4a" stroke-width="0" stroke-opacity="32%" paint-order="stroke"/><defs><linearGradient id="linearGradient-iconWithBackground" gradientUnits="userSpaceOnUse" gradientTransform="rotate(0)" style="transform-origin:center center"><stop stop-color="#077fa6"/><stop offset="1" stop-color="#85f7ff"/></linearGradient><radialGradient id="glare" cx="0" cy="0" r="1" gradientUnits="userSpaceOnUse" gradientTransform="translate(256) rotate(90) scale(512)"><stop stop-color="white"/><stop offset="1" stop-color="white" stop-opacity="0"/></radialGradient><clipPath id="clip"><use xlink:href="#r4"/></clipPath></defs><svg xmlns="http://www.w3.org/2000/svg" width="311" height="311" viewBox="0 0 256 256" x="100.5" y="100.5"><path fill="#ffffff" d="m226.53 56.41l-96-32a8 8 0 0 0-5.06 0l-96 32A8 8 0 0 0 24 64v80a8 8 0 0 0 16 0V75.1l33.59 11.19a64 64 0 0 0 20.65 88.05c-18 7.06-33.56 19.83-44.94 37.29a8 8 0 1 0 13.4 8.74C77.77 197.25 101.57 184 128 184s50.23 13.25 65.3 36.37a8 8 0 0 0 13.4-8.74c-11.38-17.46-27-30.23-44.94-37.29a64 64 0 0 0 20.65-88l44.12-14.7a8 8 0 0 0 0-15.18ZM176 120a48 48 0 1 1-86.65-28.45l36.12 12a8 8 0 0 0 5.06 0l36.12-12A47.89 47.89 0 0 1 176 120Zm-48-32.43L57.3 64L128 40.43L198.7 64Z"/></svg></svg>